<?xml version="1.0" encoding="UTF-8" standalone="no"?>
<svg width="210.058mm" height="296.926mm" viewBox="0 0 2977.2 4208.4"
 xmlns="http://www.w3.org/2000/svg" xmlns:xlink="http://www.w3.org/1999/xlink" version="1.2" baseProfile="full">
<title>aajkal (3)</title>
<desc>Generated by MuseScore Studio 4.6.5</desc>
<polyline class="StaffLines" fill="none" stroke="#000000" stroke-width="2.65" stroke-linejoin="bevel" points="212.598,381.438 2764.61,381.438" />
<polyline class="StaffLines" fill="none" stroke="#000000" stroke-width="2.65" stroke-linejoin="bevel" points="212.598,405.558 2764.61,405.558" />
<polyline class="StaffLines" fill="none" stroke="#000000" stroke-width="2.65" stroke-linejoin="bevel" points="212.598,429.678 2764.61,429.678" />
<polyline class="StaffLines" fill="none" stroke="#000000" stroke-width="2.65" stroke-linejoin="bevel" points="212.598,453.798 2764.61,453.798" />
<polyline class="StaffLines" fill="none" stroke="#000000" stroke-width="2.65" stroke-linejoin="bevel" points="212.598,477.918 2764.61,477.918" />
<polyline class="StaffLines" fill="none" stroke="#000000" stroke-width="2.65" stroke-linejoin="bevel" points="212.598,659.805 2764.61,659.805" />
<polyline class="StaffLines" fill="none" stroke="#000000" stroke-width="2.65" stroke-linejoin="bevel" points="212.598,683.925 2764.61,683.925" />
<polyline class="StaffLines" fill="none" stroke="#000000" stroke-width="2.65" stroke-linejoin="bevel" points="212.598,708.045 2764.61,708.045" />
<polyline class="StaffLines" fill="none" stroke="#000000" stroke-width="2.65" stroke-linejoin="bevel" points="212.598,732.165 2764.61,732.165" />
<polyline class="StaffLines" fill="none" stroke="#000000" stroke-width="2.65" stroke-linejoin="bevel" points="212.598,756.285 2764.61,756.285" />
<path class="MeasureNumber" d="M237.211,297.998 C234.561,298.298 231.311,298.498 228.511,298.498 C227.111,298.498 225.511,298.448 223.711,298.348 C222.061,298.248 220.411,298.148 218.711,298.048 L217.461,297.998 L212.611,308.548 L214.461,309.148 L215.661,307.148 C218.011,303.248 219.111,302.698 224.211,302.748 L232.661,302.748 L227.211,310.548 C220.811,319.548 220.811,319.548 218.361,323.548 C216.161,327.098 215.261,329.298 215.261,331.098 C215.261,332.848 216.361,333.948 218.111,333.948 C219.961,333.948 220.911,333.048 221.561,330.698 C224.061,321.298 225.561,318.048 232.511,306.798 L237.211,299.498 L237.211,297.998 M259.908,297.798 L258.458,297.798 C255.708,299.848 250.408,301.598 246.808,301.598 L246.208,303.798 L249.658,303.798 C252.708,303.798 253.058,303.898 253.058,304.798 C253.058,305.248 253.058,305.248 252.558,307.048 L247.208,327.048 C246.558,329.548 246.508,329.698 246.058,330.148 C245.558,330.648 244.508,330.798 241.858,330.848 L239.708,330.848 L239.458,333.198 L257.958,333.198 L258.258,330.848 L255.558,330.848 C252.308,330.848 251.608,330.598 251.608,329.498 C251.608,329.148 251.808,327.998 252.058,327.048 L259.908,297.798 "/>
<polyline class="BarLine" fill="none" stroke="#000000" stroke-width="4.34" stroke-linejoin="bevel" points="214.769,380.112 214.769,659.805" />
<polyline class="BarLine" fill="none" stroke="#000000" stroke-width="4.34" stroke-linejoin="bevel" points="2740.24,380.112 2740.24,659.805" />
<polyline class="BarLine" fill="none" stroke="#000000" stroke-width="13.27" stroke-linejoin="bevel" points="2757.97,380.112 2757.97,659.805" />
<polyline class="BarLine" fill="none" stroke="#000000" stroke-width="4.34" stroke-linejoin="bevel" points="1420.37,380.112 1420.37,659.805" />
<polyline class="BarLine" fill="none" stroke="#000000" stroke-width="4.34" stroke-linejoin="bevel" points="2258.49,380.112 2258.49,659.805" />
<polyline class="BarLine" fill="none" stroke="#000000" stroke-width="4.34" stroke-linejoin="bevel" points="214.769,658.478 214.769,757.611" />
<polyline class="BarLine" fill="none" stroke="#000000" stroke-width="4.34" stroke-linejoin="bevel" points="2740.24,658.478 2740.24,757.611" />
<polyline class="BarLine" fill="none" stroke="#000000" stroke-width="13.27" stroke-linejoin="bevel" points="2757.97,658.478 2757.97,757.611" />
<polyline class="BarLine" fill="none" stroke="#000000" stroke-width="4.34" stroke-linejoin="bevel" points="1420.37,658.478 1420.37,757.611" />
<polyline class="BarLine" fill="none" stroke="#000000" stroke-width="4.34" stroke-linejoin="bevel" points="2258.49,658.478 2258.49,757.611" />
<path class="TieSegment" stroke="#000000" stroke-width="1.21" stroke-linecap="round" stroke-linejoin="round" fill-rule="evenodd" d="M795.278,400.018 C820.029,380.778 894.283,380.778 919.034,400.018 C894.283,388.496 820.029,388.496 795.278,400.018"/>
<path class="Arpeggio" transform="matrix(0,-0.9648,0.9648,0,2292.15,762.36)" d="M23.8,-8.5 C23.8,-8.5 23.2,-9.2 22.4,-9.9 C22.1,-10.2 21.7,-10.3 21.4,-10.3 C21.1,-10.3 20.9,-10.2 20.7,-10 L19.6,-8.9 C19.4,-8.7 19.2,-8.6 19,-8.6 C18.6,-8.6 18.4,-8.9 18.4,-8.9 C18.4,-8.9 12,-14.4 11,-15.3 C9.9,-16.1 8.8,-16.4 7.8,-16.4 C5.7,-16.4 3.8,-15.2 3,-14.3 L-1.8,-9.5 C-2.1,-9.2 -2.2,-9 -2.2,-8.7 C-2.2,-8.2 -1.8,-7.8 -1.8,-7.8 C-1.8,-7.8 -1.2,-7.1 -0.4,-6.4 C-0.1,-6.1 0.2,-6 0.5,-6 C0.8,-6 1,-6.1 1.2,-6.3 L2.3,-7.4 C2.5,-7.6 2.7,-7.7 2.9,-7.7 C3.3,-7.7 3.6,-7.4 3.6,-7.4 C3.6,-7.4 10,-2 11,-1.1 C12.1,-0.3 13.2,0 14.2,0 C16.3,0 18.2,-1.2 19,-2.1 L23.8,-6.9 C24.1,-7.2 24.2,-7.5 24.2,-7.7 C24.2,-8.2 23.8,-8.5 23.8,-8.5"/>
<path class="Arpeggio" transform="matrix(0,-0.9648,0.9648,0,2292.15,741.134)" d="M23.8,-8.5 C23.8,-8.5 23.2,-9.2 22.4,-9.9 C22.1,-10.2 21.7,-10.3 21.4,-10.3 C21.1,-10.3 20.9,-10.2 20.7,-10 L19.6,-8.9 C19.4,-8.7 19.2,-8.6 19,-8.6 C18.6,-8.6 18.4,-8.9 18.4,-8.9 C18.4,-8.9 12,-14.4 11,-15.3 C9.9,-16.1 8.8,-16.4 7.8,-16.4 C5.7,-16.4 3.8,-15.2 3,-14.3 L-1.8,-9.5 C-2.1,-9.2 -2.2,-9 -2.2,-8.7 C-2.2,-8.2 -1.8,-7.8 -1.8,-7.8 C-1.8,-7.8 -1.2,-7.1 -0.4,-6.4 C-0.1,-6.1 0.2,-6 0.5,-6 C0.8,-6 1,-6.1 1.2,-6.3 L2.3,-7.4 C2.5,-7.6 2.7,-7.7 2.9,-7.7 C3.3,-7.7 3.6,-7.4 3.6,-7.4 C3.6,-7.4 10,-2 11,-1.1 C12.1,-0.3 13.2,0 14.2,0 C16.3,0 18.2,-1.2 19,-2.1 L23.8,-6.9 C24.1,-7.2 24.2,-7.5 24.2,-7.7 C24.2,-8.2 23.8,-8.5 23.8,-8.5"/>
<path class="Arpeggio" transform="matrix(0,-0.9648,0.9648,0,2292.15,719.909)" d="M23.8,-8.5 C23.8,-8.5 23.2,-9.2 22.4,-9.9 C22.1,-10.2 21.7,-10.3 21.4,-10.3 C21.1,-10.3 20.9,-10.2 20.7,-10 L19.6,-8.9 C19.4,-8.7 19.2,-8.6 19,-8.6 C18.6,-8.6 18.4,-8.9 18.4,-8.9 C18.4,-8.9 12,-14.4 11,-15.3 C9.9,-16.1 8.8,-16.4 7.8,-16.4 C5.7,-16.4 3.8,-15.2 3,-14.3 L-1.8,-9.5 C-2.1,-9.2 -2.2,-9 -2.2,-8.7 C-2.2,-8.2 -1.8,-7.8 -1.8,-7.8 C-1.8,-7.8 -1.2,-7.1 -0.4,-6.4 C-0.1,-6.1 0.2,-6 0.5,-6 C0.8,-6 1,-6.1 1.2,-6.3 L2.3,-7.4 C2.5,-7.6 2.7,-7.7 2.9,-7.7 C3.3,-7.7 3.6,-7.4 3.6,-7.4 C3.6,-7.4 10,-2 11,-1.1 C12.1,-0.3 13.2,0 14.2,0 C16.3,0 18.2,-1.2 19,-2.1 L23.8,-6.9 C24.1,-7.2 24.2,-7.5 24.2,-7.7 C24.2,-8.2 23.8,-8.5 23.8,-8.5"/>
<path class="Arpeggio" transform="matrix(0,-0.9648,0.9648,0,2292.15,698.683)" d="M23.8,-8.5 C23.8,-8.5 23.2,-9.2 22.4,-9.9 C22.1,-10.2 21.7,-10.3 21.4,-10.3 C21.1,-10.3 20.9,-10.2 20.7,-10 L19.6,-8.9 C19.4,-8.7 19.2,-8.6 19,-8.6 C18.6,-8.6 18.4,-8.9 18.4,-8.9 C18.4,-8.9 12,-14.4 11,-15.3 C9.9,-16.1 8.8,-16.4 7.8,-16.4 C5.7,-16.4 3.8,-15.2 3,-14.3 L-1.8,-9.5 C-2.1,-9.2 -2.2,-9 -2.2,-8.7 C-2.2,-8.2 -1.8,-7.8 -1.8,-7.8 C-1.8,-7.8 -1.2,-7.1 -0.4,-6.4 C-0.1,-6.1 0.2,-6 0.5,-6 C0.8,-6 1,-6.1 1.2,-6.3 L2.3,-7.4 C2.5,-7.6 2.7,-7.7 2.9,-7.7 C3.3,-7.7 3.6,-7.4 3.6,-7.4 C3.6,-7.4 10,-2 11,-1.1 C12.1,-0.3 13.2,0 14.2,0 C16.3,0 18.2,-1.2 19,-2.1 L23.8,-6.9 C24.1,-7.2 24.2,-7.5 24.2,-7.7 C24.2,-8.2 23.8,-8.5 23.8,-8.5"/>
<polyline class="LedgerLine" fill="none" stroke="#000000" stroke-width="3.86" stroke-linejoin="bevel" points="2293.84,502.038 2345.74,502.038" />
<polyline class="LedgerLine" fill="none" stroke="#000000" stroke-width="3.86" stroke-linejoin="bevel" points="2055.49,502.038 2102.75,502.038" />
<polyline class="LedgerLine" fill="none" stroke="#000000" stroke-width="3.86" stroke-linejoin="bevel" points="2293.84,526.158 2345.74,526.158" />
<polyline class="Stem" fill="none" stroke="#000000" stroke-width="2.41" stroke-linejoin="bevel" points="1772.15,437.879 1772.15,363.541" />
<polyline class="Stem" fill="none" stroke="#000000" stroke-width="2.41" stroke-linejoin="bevel" points="647.934,409.611 647.934,477.974" />
<polyline class="Stem" fill="none" stroke="#000000" stroke-width="2.41" stroke-linejoin="bevel" points="934.036,413.759 934.036,351.345" />
<polyline class="Stem" fill="none" stroke="#000000" stroke-width="2.41" stroke-linejoin="bevel" points="455.065,433.731 455.065,502.038" />
<polyline class="Stem" fill="none" stroke="#000000" stroke-width="2.41" stroke-linejoin="bevel" points="776.513,421.671 776.513,483.893" />
<polyline class="Stem" fill="none" stroke="#000000" stroke-width="2.41" stroke-linejoin="bevel" points="1062.62,474.059 1062.62,357.337" />
<polyline class="Stem" fill="none" stroke="#000000" stroke-width="2.41" stroke-linejoin="bevel" points="1900.73,437.879 1900.73,363.348" />
<polyline class="Stem" fill="none" stroke="#000000" stroke-width="2.41" stroke-linejoin="bevel" points="1191.19,461.999 1191.19,363.33" />
<polyline class="Stem" fill="none" stroke="#000000" stroke-width="2.41" stroke-linejoin="bevel" points="2093.6,498.179 2093.6,417.618" />
<polyline class="Stem" fill="none" stroke="#000000" stroke-width="2.41" stroke-linejoin="bevel" points="1319.77,449.939 1319.77,369.322" />
<polyline class="Stem" fill="none" stroke="#000000" stroke-width="2.41" stroke-linejoin="bevel" points="1482.85,437.879 1482.85,363.348" />
<polyline class="Stem" fill="none" stroke="#000000" stroke-width="2.41" stroke-linejoin="bevel" points="905.092,700.037 905.092,774.375" />
<polyline class="Stem" fill="none" stroke="#000000" stroke-width="2.41" stroke-linejoin="bevel" points="1646.77,663.857 1646.77,774.375" />
<polyline class="Stem" fill="none" stroke="#000000" stroke-width="2.41" stroke-linejoin="bevel" points="647.934,651.797 647.934,756.285" />
<polyline class="Stem" fill="none" stroke="#000000" stroke-width="2.41" stroke-linejoin="bevel" points="1482.85,716.246 1482.85,641.715" />
<polyline class="Stem" fill="none" stroke="#000000" stroke-width="2.41" stroke-linejoin="bevel" points="1900.73,716.246 1900.73,641.715" />
<polyline class="Stem" fill="none" stroke="#000000" stroke-width="2.41" stroke-linejoin="bevel" points="1162.25,651.797 1162.25,756.285" />
<polyline class="Stem" fill="none" stroke="#000000" stroke-width="2.41" stroke-linejoin="bevel" points="2064.65,663.857 2064.65,774.375" />
<polyline class="Stem" fill="none" stroke="#000000" stroke-width="2.41" stroke-linejoin="bevel" points="455.065,700.037 455.065,774.375" />
<path class="Hook" transform="matrix(0.9648,0,0,0.9648,1770.94,363.348)" d="M0,22.7 C0,23 0.1,23.5 0.8,23.8 C5.1,25.2 13.7,30.6 20.2,41.7 C22,44.8 24.9,49.1 24.9,57.4 C24.9,64.6 23,72 20.4,79.2 C20.2,79.8 20,80.3 20.1,80.7 C20.1,81.3 20.5,81.7 21.1,81.7 C21.8,81.7 22.3,81.3 22.7,80.6 C27.2,72.6 28.9,63.3 28.9,54.2 C28.4,41.3 21,31.8 21,31.8 C21.3,31.8 11.8,19.5 9.1,15.3 C5.4,9.6 3.7,3.9 3.5,3.5 C3.4,3.2 2.5,-0.4 2.5,-0.4 C2.4,-0.8 1.9,-1.2 1.3,-1.2 C0.6,-1.2 0,-0.6 0,0.1 L0,22.7 "/>
<path class="Note" transform="matrix(0.9648,0,0,0.9648,1289.62,453.798)" d="M0,4.2 C0,8.5 3.1,13.3 11.2,13.3 C21.6,13.3 32.5,4.8 32.5,-4 C32.5,-9.9 27.5,-13.2 21.3,-13.2 C11.6,-13.2 0,-5 0,4.2"/>
<path class="Note" transform="matrix(0.9648,0,0,0.9648,646.728,405.558)" d="M0,4.2 C0,8.5 3.1,13.3 11.2,13.3 C21.6,13.3 32.5,4.8 32.5,-4 C32.5,-9.9 27.5,-13.2 21.3,-13.2 C11.6,-13.2 0,-5 0,4.2"/>
<path class="Note" transform="matrix(0.9648,0,0,0.9648,453.859,429.678)" d="M0,4.2 C0,8.5 3.1,13.3 11.2,13.3 C21.6,13.3 32.5,4.8 32.5,-4 C32.5,-9.9 27.5,-13.2 21.3,-13.2 C11.6,-13.2 0,-5 0,4.2"/>
<path class="Note" transform="matrix(0.9648,0,0,0.9648,2301.8,477.918)" d="M19.5,10.2 C16.7,10.2 14.8,9.4 13.5,6.9 C12.2,4.4 10.4,-2 10.3,-4.7 C10.1,-7.4 11.1,-9 13.5,-9.8 C14.7,-10.2 16.3,-10.4 17.8,-10.4 C20.6,-10.4 22.4,-9.8 23.8,-7.1 C25.2,-4.4 27,2 27,4.5 C27,9.4 23.6,10.2 19.5,10.2 M18.7,-13.6 C4.9,-13.6 0,-6.6 0,-0.1 C0,6.4 4.9,13.4 18.7,13.4 C32.5,13.4 37.3,6.4 37.3,-0.1 C37.3,-6.6 32.5,-13.6 18.7,-13.6"/>
<path class="Note" transform="matrix(0.9648,0,0,0.9648,1452.7,441.738)" d="M0,4.2 C0,8.5 3.1,13.3 11.2,13.3 C21.6,13.3 32.5,4.8 32.5,-4 C32.5,-9.9 27.5,-13.2 21.3,-13.2 C11.6,-13.2 0,-5 0,4.2"/>
<path class="Note" transform="matrix(0.9648,0,0,0.9648,2063.45,502.038)" d="M0,4.2 C0,8.5 3.1,13.3 11.2,13.3 C21.6,13.3 32.5,4.8 32.5,-4 C32.5,-9.9 27.5,-13.2 21.3,-13.2 C11.6,-13.2 0,-5 0,4.2"/>
<path class="Note" transform="matrix(0.9648,0,0,0.9648,2301.8,502.038)" d="M19.5,10.2 C16.7,10.2 14.8,9.4 13.5,6.9 C12.2,4.4 10.4,-2 10.3,-4.7 C10.1,-7.4 11.1,-9 13.5,-9.8 C14.7,-10.2 16.3,-10.4 17.8,-10.4 C20.6,-10.4 22.4,-9.8 23.8,-7.1 C25.2,-4.4 27,2 27,4.5 C27,9.4 23.6,10.2 19.5,10.2 M18.7,-13.6 C4.9,-13.6 0,-6.6 0,-0.1 C0,6.4 4.9,13.4 18.7,13.4 C32.5,13.4 37.3,6.4 37.3,-0.1 C37.3,-6.6 32.5,-13.6 18.7,-13.6"/>
<path class="Note" transform="matrix(0.9648,0,0,0.9648,1161.04,465.858)" d="M0,4.2 C0,8.5 3.1,13.3 11.2,13.3 C21.6,13.3 32.5,4.8 32.5,-4 C32.5,-9.9 27.5,-13.2 21.3,-13.2 C11.6,-13.2 0,-5 0,4.2"/>
<path class="Note" transform="matrix(0.9648,0,0,0.9648,1870.58,441.738)" d="M0,4.2 C0,8.5 3.1,13.3 11.2,13.3 C21.6,13.3 32.5,4.8 32.5,-4 C32.5,-9.9 27.5,-13.2 21.3,-13.2 C11.6,-13.2 0,-5 0,4.2"/>
<path class="Note" transform="matrix(0.9648,0,0,0.9648,1032.47,477.918)" d="M0,4.2 C0,8.5 3.1,13.3 11.2,13.3 C21.6,13.3 32.5,4.8 32.5,-4 C32.5,-9.9 27.5,-13.2 21.3,-13.2 C11.6,-13.2 0,-5 0,4.2"/>
<path class="Note" transform="matrix(0.9648,0,0,0.9648,2301.8,526.158)" d="M19.5,10.2 C16.7,10.2 14.8,9.4 13.5,6.9 C12.2,4.4 10.4,-2 10.3,-4.7 C10.1,-7.4 11.1,-9 13.5,-9.8 C14.7,-10.2 16.3,-10.4 17.8,-10.4 C20.6,-10.4 22.4,-9.8 23.8,-7.1 C25.2,-4.4 27,2 27,4.5 C27,9.4 23.6,10.2 19.5,10.2 M18.7,-13.6 C4.9,-13.6 0,-6.6 0,-0.1 C0,6.4 4.9,13.4 18.7,13.4 C32.5,13.4 37.3,6.4 37.3,-0.1 C37.3,-6.6 32.5,-13.6 18.7,-13.6"/>
<path class="Note" transform="matrix(0.9648,0,0,0.9648,903.886,417.618)" d="M0,4.2 C0,8.5 3.1,13.3 11.2,13.3 C21.6,13.3 32.5,4.8 32.5,-4 C32.5,-9.9 27.5,-13.2 21.3,-13.2 C11.6,-13.2 0,-5 0,4.2"/>
<path class="Note" transform="matrix(0.9648,0,0,0.9648,1742,441.738)" d="M0,4.2 C0,8.5 3.1,13.3 11.2,13.3 C21.6,13.3 32.5,4.8 32.5,-4 C32.5,-9.9 27.5,-13.2 21.3,-13.2 C11.6,-13.2 0,-5 0,4.2"/>
<path class="Note" transform="matrix(0.9648,0,0,0.9648,775.307,417.618)" d="M0,4.2 C0,8.5 3.1,13.3 11.2,13.3 C21.6,13.3 32.5,4.8 32.5,-4 C32.5,-9.9 27.5,-13.2 21.3,-13.2 C11.6,-13.2 0,-5 0,4.2"/>
<path class="Note" transform="matrix(0.9648,0,0,0.9648,1645.56,695.985)" d="M0,4.2 C0,8.5 3.1,13.3 11.2,13.3 C21.6,13.3 32.5,4.8 32.5,-4 C32.5,-9.9 27.5,-13.2 21.3,-13.2 C11.6,-13.2 0,-5 0,4.2"/>
<path class="Note" transform="matrix(0.9648,0,0,0.9648,1161.04,671.865)" d="M0,4.2 C0,8.5 3.1,13.3 11.2,13.3 C21.6,13.3 32.5,4.8 32.5,-4 C32.5,-9.9 27.5,-13.2 21.3,-13.2 C11.6,-13.2 0,-5 0,4.2"/>
<path class="Note" transform="matrix(0.9648,0,0,0.9648,1645.56,659.805)" d="M0,4.2 C0,8.5 3.1,13.3 11.2,13.3 C21.6,13.3 32.5,4.8 32.5,-4 C32.5,-9.9 27.5,-13.2 21.3,-13.2 C11.6,-13.2 0,-5 0,4.2"/>
<path class="Note" transform="matrix(0.9648,0,0,0.9648,2301.8,720.105)" d="M19.5,10.2 C16.7,10.2 14.8,9.4 13.5,6.9 C12.2,4.4 10.4,-2 10.3,-4.7 C10.1,-7.4 11.1,-9 13.5,-9.8 C14.7,-10.2 16.3,-10.4 17.8,-10.4 C20.6,-10.4 22.4,-9.8 23.8,-7.1 C25.2,-4.4 27,2 27,4.5 C27,9.4 23.6,10.2 19.5,10.2 M18.7,-13.6 C4.9,-13.6 0,-6.6 0,-0.1 C0,6.4 4.9,13.4 18.7,13.4 C32.5,13.4 37.3,6.4 37.3,-0.1 C37.3,-6.6 32.5,-13.6 18.7,-13.6"/>
<path class="Note" transform="matrix(0.9648,0,0,0.9648,2301.8,744.225)" d="M19.5,10.2 C16.7,10.2 14.8,9.4 13.5,6.9 C12.2,4.4 10.4,-2 10.3,-4.7 C10.1,-7.4 11.1,-9 13.5,-9.8 C14.7,-10.2 16.3,-10.4 17.8,-10.4 C20.6,-10.4 22.4,-9.8 23.8,-7.1 C25.2,-4.4 27,2 27,4.5 C27,9.4 23.6,10.2 19.5,10.2 M18.7,-13.6 C4.9,-13.6 0,-6.6 0,-0.1 C0,6.4 4.9,13.4 18.7,13.4 C32.5,13.4 37.3,6.4 37.3,-0.1 C37.3,-6.6 32.5,-13.6 18.7,-13.6"/>
<path class="Note" transform="matrix(0.9648,0,0,0.9648,1452.7,720.105)" d="M0,4.2 C0,8.5 3.1,13.3 11.2,13.3 C21.6,13.3 32.5,4.8 32.5,-4 C32.5,-9.9 27.5,-13.2 21.3,-13.2 C11.6,-13.2 0,-5 0,4.2"/>
<path class="Note" transform="matrix(0.9648,0,0,0.9648,453.859,695.985)" d="M0,4.2 C0,8.5 3.1,13.3 11.2,13.3 C21.6,13.3 32.5,4.8 32.5,-4 C32.5,-9.9 27.5,-13.2 21.3,-13.2 C11.6,-13.2 0,-5 0,4.2"/>
<path class="Note" transform="matrix(0.9648,0,0,0.9648,646.728,671.865)" d="M0,4.2 C0,8.5 3.1,13.3 11.2,13.3 C21.6,13.3 32.5,4.8 32.5,-4 C32.5,-9.9 27.5,-13.2 21.3,-13.2 C11.6,-13.2 0,-5 0,4.2"/>
<path class="Note" transform="matrix(0.9648,0,0,0.9648,1870.58,720.105)" d="M0,4.2 C0,8.5 3.1,13.3 11.2,13.3 C21.6,13.3 32.5,4.8 32.5,-4 C32.5,-9.9 27.5,-13.2 21.3,-13.2 C11.6,-13.2 0,-5 0,4.2"/>
<path class="Note" transform="matrix(0.9648,0,0,0.9648,646.728,647.745)" d="M0,4.2 C0,8.5 3.1,13.3 11.2,13.3 C21.6,13.3 32.5,4.8 32.5,-4 C32.5,-9.9 27.5,-13.2 21.3,-13.2 C11.6,-13.2 0,-5 0,4.2"/>
<path class="Note" transform="matrix(0.9648,0,0,0.9648,903.886,695.985)" d="M0,4.2 C0,8.5 3.1,13.3 11.2,13.3 C21.6,13.3 32.5,4.8 32.5,-4 C32.5,-9.9 27.5,-13.2 21.3,-13.2 C11.6,-13.2 0,-5 0,4.2"/>
<path class="Note" transform="matrix(0.9648,0,0,0.9648,2063.45,659.805)" d="M0,4.2 C0,8.5 3.1,13.3 11.2,13.3 C21.6,13.3 32.5,4.8 32.5,-4 C32.5,-9.9 27.5,-13.2 21.3,-13.2 C11.6,-13.2 0,-5 0,4.2"/>
<path class="Note" transform="matrix(0.9648,0,0,0.9648,1161.04,647.745)" d="M0,4.2 C0,8.5 3.1,13.3 11.2,13.3 C21.6,13.3 32.5,4.8 32.5,-4 C32.5,-9.9 27.5,-13.2 21.3,-13.2 C11.6,-13.2 0,-5 0,4.2"/>
<path class="Note" transform="matrix(0.9648,0,0,0.9648,2063.45,695.985)" d="M0,4.2 C0,8.5 3.1,13.3 11.2,13.3 C21.6,13.3 32.5,4.8 32.5,-4 C32.5,-9.9 27.5,-13.2 21.3,-13.2 C11.6,-13.2 0,-5 0,4.2"/>
<path class="Note" transform="matrix(0.9648,0,0,0.9648,2301.8,695.985)" d="M19.5,10.2 C16.7,10.2 14.8,9.4 13.5,6.9 C12.2,4.4 10.4,-2 10.3,-4.7 C10.1,-7.4 11.1,-9 13.5,-9.8 C14.7,-10.2 16.3,-10.4 17.8,-10.4 C20.6,-10.4 22.4,-9.8 23.8,-7.1 C25.2,-4.4 27,2 27,4.5 C27,9.4 23.6,10.2 19.5,10.2 M18.7,-13.6 C4.9,-13.6 0,-6.6 0,-0.1 C0,6.4 4.9,13.4 18.7,13.4 C32.5,13.4 37.3,6.4 37.3,-0.1 C37.3,-6.6 32.5,-13.6 18.7,-13.6"/>
<path class="Clef" transform="matrix(0.9648,0,0,0.9648,235.03,453.798)" d="M42,20.6 C40,21 38.1,21.2 36.2,21.2 C21.9,21.2 9.7,11.2 9.7,-3.9 C9.7,-16.1 18.3,-27 27.1,-34.6 C28.8,-36.1 30.4,-37.5 31.9,-39 C32.8,-33.6 33.5,-28.9 34.2,-24.8 C25.1,-22.1 18.9,-12.5 18.9,-3.1 C18.9,3.9 24.4,13.5 32.4,13.5 C33.2,13.5 34.1,13.1 34.1,12.2 C34.1,11.3 33.1,10.8 31.9,10 C28,7.6 25.8,5 25.8,0.1 C25.8,-6 30.3,-10.9 36.2,-12.3 L42,20.6 M33.2,-82.2 C34.1,-86.2 38.7,-96.7 43.9,-96.7 C45.4,-96.7 47.8,-91.8 47.8,-84.9 C47.8,-74.5 40.1,-66.7 33.2,-59.9 C32.6,-63.9 32.1,-67.8 32.1,-72 C32.1,-75.7 32.4,-79.1 33.2,-82.2 M56.2,2.1 C56.2,9.2 53.3,16.5 46.2,19.4 C44.1,7.4 41.4,-8.5 40.7,-12.9 C49.7,-12.9 56.2,-6.8 56.2,2.1 M12.2,51.3 C12.2,57.9 17.3,66.6 30.8,66.6 C35.5,66.6 39.6,65.4 43.2,63.2 C48.6,59.4 50,52.8 50,46.5 C50,42.6 49.4,38.1 48.4,32.4 C48.1,30.4 47.5,27.4 46.9,23.5 C56.7,20.3 64,10.1 64,-0.2 C64,-15.3 53.3,-25.5 38.7,-25.5 C37.7,-31.5 36.7,-37.4 35.8,-43 C46.4,-54.1 53.7,-66.6 53.7,-82.5 C53.7,-91.6 50.9,-99 49.3,-102.6 C46.9,-107.7 44,-111.2 42.2,-111.2 C41.5,-111.2 38.4,-110 35.1,-106.1 C28.7,-98.5 26.9,-85.7 26.9,-77.3 C26.9,-71.9 27.4,-67 29.1,-55.8 C29,-55.7 23.8,-50.4 21.7,-48.7 C12.6,-40.2 0,-28.1 0,-8.1 C0,10.6 16.3,25.3 34.9,25.3 C37.8,25.3 40.5,25 42.8,24.6 C44.7,34.2 45.8,41.2 45.8,46.5 C45.8,56.9 40.5,62.4 30.4,62.4 C28,62.4 25.9,61.9 25.7,61.9 C25.6,61.8 25.4,61.7 25.4,61.6 C25.4,61.4 25.6,61.3 25.9,61.2 C30.6,60.5 35.3,56.5 35.3,50.1 C35.3,44.7 31.2,39 23.7,39 C16.7,39 12.2,44.7 12.2,51.3"/>
<path class="Clef" transform="matrix(0.9648,0,0,0.9648,235.03,683.925)" d="M56.8,-12.4 C56.8,-9.6 59,-7.4 61.6,-7.4 C64.2,-7.4 66.4,-9.6 66.4,-12.4 C66.4,-15.2 64.2,-17.5 61.6,-17.5 C59,-17.5 56.8,-15.2 56.8,-12.4 M25.4,-25.1 C17.8,-25.1 11.7,-20.7 11.6,-20.7 C5.7,-16.4 1.9,-9.8 1.9,-2.5 C1.9,4.8 6.1,10.2 13.5,10.2 C19.9,10.2 24.9,5.9 24.9,-0.7 C24.9,-6.4 19.9,-11.1 14.3,-11.1 C13.1,-11.1 12,-10.9 11.1,-10.6 C10.1,-10.2 8.4,-9.2 7.6,-8.5 C8.3,-12.9 11.3,-17.3 15.2,-19.4 C17.7,-20.8 20.9,-21.4 24.4,-21.4 C34.6,-21.4 39.6,-13.2 39.6,3.6 C39.6,16.6 31.3,35.3 21.5,44.1 C11.1,53.6 1.3,58.1 1.2,58.1 C1.2,58.1 0,58.8 0,60 C0,60.2 0.1,60.3 0.1,60.5 C0.4,61.5 1.3,61.7 1.9,61.7 C2,61.7 2.3,61.6 2.4,61.6 C2.5,61.6 13.9,56.9 23,49.8 C37,39.7 52.8,21.9 52.8,3.5 C52.8,-13.9 43.4,-25.1 25.4,-25.1 M56.8,12.3 C56.8,15.1 59,17.4 61.6,17.4 C64.2,17.4 66.4,15.1 66.4,12.3 C66.4,9.5 64.2,7.2 61.6,7.2 C59,7.2 56.8,9.5 56.8,12.3"/>
<path class="KeySig" transform="matrix(0.9648,0,0,0.9648,317.174,381.438)" d="M7.8,-7.4 L16.7,-9.2 L16.7,7.3 L7.8,9.2 L7.8,-7.4 M23.3,-10.5 C23.9,-10.6 24.4,-11.3 24.4,-11.9 L24.4,-17.8 C24.4,-18.6 23.8,-19.2 23,-19.2 L22.8,-19.2 L19.5,-18.5 L19.5,-33.4 L16.7,-33.4 L16.7,-17.9 L7.8,-16.1 L7.8,-30.2 L5,-30.2 L5,-15.5 L1.1,-14.7 C0.5,-14.6 0,-13.9 0,-13.3 L0,-7.5 C0,-6.7 0.6,-6.1 1.4,-6.1 L1.7,-6.1 L5,-6.8 L5,9.7 L1.1,10.5 C0.5,10.6 0,11.3 0,11.9 L0,17.7 C0,18.5 0.6,19.1 1.4,19.1 L1.7,19.1 L5,18.4 L5,33.3 L7.8,33.3 L7.8,17.8 L16.7,16 L16.7,30.1 L19.5,30.1 L19.5,15.4 L23.3,14.7 C23.9,14.6 24.4,13.9 24.4,13.3 L24.4,7.4 C24.4,6.6 23.8,6 23,6 L22.8,6 L19.5,6.7 L19.5,-9.8 L23.3,-10.5 "/>
<path class="KeySig" transform="matrix(0.9648,0,0,0.9648,343.6,417.618)" d="M7.8,-7.4 L16.7,-9.2 L16.7,7.3 L7.8,9.2 L7.8,-7.4 M23.3,-10.5 C23.9,-10.6 24.4,-11.3 24.4,-11.9 L24.4,-17.8 C24.4,-18.6 23.8,-19.2 23,-19.2 L22.8,-19.2 L19.5,-18.5 L19.5,-33.4 L16.7,-33.4 L16.7,-17.9 L7.8,-16.1 L7.8,-30.2 L5,-30.2 L5,-15.5 L1.1,-14.7 C0.5,-14.6 0,-13.9 0,-13.3 L0,-7.5 C0,-6.7 0.6,-6.1 1.4,-6.1 L1.7,-6.1 L5,-6.8 L5,9.7 L1.1,10.5 C0.5,10.6 0,11.3 0,11.9 L0,17.7 C0,18.5 0.6,19.1 1.4,19.1 L1.7,19.1 L5,18.4 L5,33.3 L7.8,33.3 L7.8,17.8 L16.7,16 L16.7,30.1 L19.5,30.1 L19.5,15.4 L23.3,14.7 C23.9,14.6 24.4,13.9 24.4,13.3 L24.4,7.4 C24.4,6.6 23.8,6 23,6 L22.8,6 L19.5,6.7 L19.5,-9.8 L23.3,-10.5 "/>
<path class="KeySig" transform="matrix(0.9648,0,0,0.9648,370.012,369.378)" d="M7.8,-7.4 L16.7,-9.2 L16.7,7.3 L7.8,9.2 L7.8,-7.4 M23.3,-10.5 C23.9,-10.6 24.4,-11.3 24.4,-11.9 L24.4,-17.8 C24.4,-18.6 23.8,-19.2 23,-19.2 L22.8,-19.2 L19.5,-18.5 L19.5,-33.4 L16.7,-33.4 L16.7,-17.9 L7.8,-16.1 L7.8,-30.2 L5,-30.2 L5,-15.5 L1.1,-14.7 C0.5,-14.6 0,-13.9 0,-13.3 L0,-7.5 C0,-6.7 0.6,-6.1 1.4,-6.1 L1.7,-6.1 L5,-6.8 L5,9.7 L1.1,10.5 C0.5,10.6 0,11.3 0,11.9 L0,17.7 C0,18.5 0.6,19.1 1.4,19.1 L1.7,19.1 L5,18.4 L5,33.3 L7.8,33.3 L7.8,17.8 L16.7,16 L16.7,30.1 L19.5,30.1 L19.5,15.4 L23.3,14.7 C23.9,14.6 24.4,13.9 24.4,13.3 L24.4,7.4 C24.4,6.6 23.8,6 23,6 L22.8,6 L19.5,6.7 L19.5,-9.8 L23.3,-10.5 "/>
<path class="KeySig" transform="matrix(0.9648,0,0,0.9648,317.174,683.925)" d="M7.8,-7.4 L16.7,-9.2 L16.7,7.3 L7.8,9.2 L7.8,-7.4 M23.3,-10.5 C23.9,-10.6 24.4,-11.3 24.4,-11.9 L24.4,-17.8 C24.4,-18.6 23.8,-19.2 23,-19.2 L22.8,-19.2 L19.5,-18.5 L19.5,-33.4 L16.7,-33.4 L16.7,-17.9 L7.8,-16.1 L7.8,-30.2 L5,-30.2 L5,-15.5 L1.1,-14.7 C0.5,-14.6 0,-13.9 0,-13.3 L0,-7.5 C0,-6.7 0.6,-6.1 1.4,-6.1 L1.7,-6.1 L5,-6.8 L5,9.7 L1.1,10.5 C0.5,10.6 0,11.3 0,11.9 L0,17.7 C0,18.5 0.6,19.1 1.4,19.1 L1.7,19.1 L5,18.4 L5,33.3 L7.8,33.3 L7.8,17.8 L16.7,16 L16.7,30.1 L19.5,30.1 L19.5,15.4 L23.3,14.7 C23.9,14.6 24.4,13.9 24.4,13.3 L24.4,7.4 C24.4,6.6 23.8,6 23,6 L22.8,6 L19.5,6.7 L19.5,-9.8 L23.3,-10.5 "/>
<path class="KeySig" transform="matrix(0.9648,0,0,0.9648,343.6,720.105)" d="M7.8,-7.4 L16.7,-9.2 L16.7,7.3 L7.8,9.2 L7.8,-7.4 M23.3,-10.5 C23.9,-10.6 24.4,-11.3 24.4,-11.9 L24.4,-17.8 C24.4,-18.6 23.8,-19.2 23,-19.2 L22.8,-19.2 L19.5,-18.5 L19.5,-33.4 L16.7,-33.4 L16.7,-17.9 L7.8,-16.1 L7.8,-30.2 L5,-30.2 L5,-15.5 L1.1,-14.7 C0.5,-14.6 0,-13.9 0,-13.3 L0,-7.5 C0,-6.7 0.6,-6.1 1.4,-6.1 L1.7,-6.1 L5,-6.8 L5,9.7 L1.1,10.5 C0.5,10.6 0,11.3 0,11.9 L0,17.7 C0,18.5 0.6,19.1 1.4,19.1 L1.7,19.1 L5,18.4 L5,33.3 L7.8,33.3 L7.8,17.8 L16.7,16 L16.7,30.1 L19.5,30.1 L19.5,15.4 L23.3,14.7 C23.9,14.6 24.4,13.9 24.4,13.3 L24.4,7.4 C24.4,6.6 23.8,6 23,6 L22.8,6 L19.5,6.7 L19.5,-9.8 L23.3,-10.5 "/>
<path class="KeySig" transform="matrix(0.9648,0,0,0.9648,370.012,671.865)" d="M7.8,-7.4 L16.7,-9.2 L16.7,7.3 L7.8,9.2 L7.8,-7.4 M23.3,-10.5 C23.9,-10.6 24.4,-11.3 24.4,-11.9 L24.4,-17.8 C24.4,-18.6 23.8,-19.2 23,-19.2 L22.8,-19.2 L19.5,-18.5 L19.5,-33.4 L16.7,-33.4 L16.7,-17.9 L7.8,-16.1 L7.8,-30.2 L5,-30.2 L5,-15.5 L1.1,-14.7 C0.5,-14.6 0,-13.9 0,-13.3 L0,-7.5 C0,-6.7 0.6,-6.1 1.4,-6.1 L1.7,-6.1 L5,-6.8 L5,9.7 L1.1,10.5 C0.5,10.6 0,11.3 0,11.9 L0,17.7 C0,18.5 0.6,19.1 1.4,19.1 L1.7,19.1 L5,18.4 L5,33.3 L7.8,33.3 L7.8,17.8 L16.7,16 L16.7,30.1 L19.5,30.1 L19.5,15.4 L23.3,14.7 C23.9,14.6 24.4,13.9 24.4,13.3 L24.4,7.4 C24.4,6.6 23.8,6 23,6 L22.8,6 L19.5,6.7 L19.5,-9.8 L23.3,-10.5 "/>
<path class="Beam" fill-rule="evenodd" d="M932.83,345.252 L1320.98,363.342 L1320.98,375.415 L932.83,357.325 L932.83,345.252 "/>
<path class="Beam" fill-rule="evenodd" d="M646.728,471.882 L777.719,477.912 L777.719,489.985 L646.728,483.955 L646.728,471.882 "/>
<path class="Lyrics" d="M2067.19,563.288 L2038.44,563.288 L2037.72,576.632 L2039.78,576.632 C2040.45,571.784 2041.75,565.544 2047.89,565.544 C2049.48,565.544 2050.15,566.072 2050.15,567.272 L2050.15,592.04 C2050.15,594.488 2050.15,594.584 2049.86,595.016 C2049.48,595.496 2048.56,595.688 2045.83,595.688 L2044.58,595.688 L2044.58,597.944 L2061.04,597.944 L2061.04,595.688 L2059.8,595.688 C2057.11,595.688 2056.2,595.496 2055.81,595.016 C2055.52,594.584 2055.52,594.488 2055.52,592.04 L2055.52,567.272 C2055.52,566.072 2056.2,565.544 2057.78,565.544 C2063.92,565.544 2065.17,571.832 2065.84,576.632 L2067.91,576.632 L2067.19,563.288 M2079.62,574.856 C2073.72,574.856 2069.16,580.088 2069.16,586.808 C2069.16,593.384 2073.76,598.664 2079.52,598.664 C2085.28,598.664 2089.89,593.384 2089.89,586.76 C2089.89,580.184 2085.28,574.856 2079.62,574.856 M2079.62,576.92 C2082.98,576.92 2084.85,580.424 2084.85,586.76 C2084.85,593.144 2082.98,596.6 2079.52,596.6 C2076.07,596.6 2074.2,593.144 2074.2,586.808 C2074.2,580.28 2076.02,576.92 2079.62,576.92 M2101.12,562.568 L2092.24,563.096 L2092.24,565.16 L2094.55,565.16 C2096.37,565.208 2096.61,565.496 2096.61,567.56 L2096.61,594.344 C2096.56,595.016 2096.52,595.304 2096.32,595.544 C2095.99,595.976 2095.08,596.168 2093.01,596.216 L2092.82,596.216 L2092.82,597.944 L2104.96,597.944 L2104.96,596.216 L2104.77,596.216 C2101.56,596.12 2101.12,595.88 2101.12,594.152 L2101.12,587.048 C2101.12,584.696 2101.46,582.536 2101.99,581.432 C2103.04,579.272 2105.16,577.784 2107.22,577.784 C2108.47,577.784 2109.91,578.504 2110.58,579.464 C2111.35,580.52 2111.68,581.96 2111.68,584.312 L2111.68,594.344 C2111.64,595.016 2111.59,595.304 2111.4,595.544 C2111.06,595.976 2110.1,596.168 2108.04,596.216 L2107.84,596.216 L2107.84,597.944 L2119.99,597.944 L2119.99,596.216 L2119.8,596.216 C2116.63,596.12 2116.2,595.88 2116.2,594.152 L2116.2,584.504 C2116.2,581.048 2116.05,580.184 2115.19,578.552 C2113.99,576.2 2111.59,574.856 2108.71,574.856 C2105.59,574.856 2103.28,576.248 2101.12,579.464 L2101.12,562.568 "/>
<path class="Lyrics" d="M1303.88,575.576 L1295.38,576.104 L1295.38,578.168 L1297.35,578.168 C1299.17,578.216 1299.41,578.504 1299.41,580.568 L1299.41,594.296 C1299.36,595.016 1299.32,595.304 1299.12,595.544 C1298.79,595.976 1297.83,596.168 1295.76,596.216 L1295.57,596.216 L1295.57,597.944 L1308.39,597.944 L1308.39,596.216 L1307.52,596.216 C1304.31,596.12 1303.88,595.88 1303.88,594.152 L1303.88,591.56 C1303.92,583.496 1306.8,577.352 1310.55,577.16 C1309.88,577.928 1309.68,578.408 1309.68,579.32 C1309.68,580.856 1310.79,581.96 1312.32,581.96 C1314.1,581.96 1315.25,580.664 1315.25,578.744 C1315.25,576.392 1313.62,574.856 1311.08,574.856 C1308.05,574.856 1305.46,577.256 1303.88,581.528 L1303.88,575.576 "/>
<path class="Lyrics" d="M1158.7,562.568 L1150.44,563.096 L1150.44,565.16 L1152.12,565.16 C1153.95,565.208 1154.19,565.496 1154.19,567.56 L1154.19,586.232 C1154.19,592.904 1153.9,596.552 1153.32,598.616 L1155.15,598.616 L1157.5,594.872 C1159.47,597.464 1161.72,598.664 1164.7,598.664 C1170.65,598.664 1175.02,593.576 1175.02,586.616 C1175.02,579.704 1170.99,574.856 1165.23,574.856 C1162.3,574.856 1160.52,575.864 1158.7,578.6 L1158.7,562.568 M1164.36,577.304 C1167.96,577.304 1169.98,580.808 1169.98,587.096 C1169.98,593.192 1168.01,596.6 1164.51,596.6 C1160.72,596.6 1158.46,593.096 1158.46,587.192 C1158.46,580.76 1160.52,577.304 1164.36,577.304 M1198.44,582.488 C1198.44,579.464 1197.91,577.928 1196.52,576.776 C1194.94,575.48 1192.59,574.856 1189.51,574.856 C1184.09,574.856 1180.15,577.4 1180.15,580.904 C1180.15,582.68 1181.26,583.832 1182.94,583.832 C1184.47,583.832 1185.53,582.824 1185.53,581.384 C1185.53,580.76 1185.29,580.088 1184.81,579.416 C1184.52,579.08 1184.47,578.984 1184.47,578.744 C1184.47,577.784 1186.39,576.92 1188.7,576.92 C1190.23,576.92 1191.91,577.4 1192.68,578.12 C1193.59,578.888 1193.93,580.04 1193.93,582.2 L1193.93,584.072 C1188.94,584.936 1187.35,585.32 1185,586.232 C1180.83,587.768 1178.86,589.976 1178.86,593.048 C1178.86,596.504 1181.55,598.664 1185.82,598.664 C1189.13,598.664 1192.11,597.32 1194.17,594.872 C1194.94,597.32 1196.14,598.28 1198.39,598.28 C1200.55,598.28 1202.81,596.888 1202.81,595.496 C1202.81,595.16 1202.62,594.92 1202.33,594.92 C1202.14,594.92 1201.95,594.968 1201.61,595.112 C1200.94,595.4 1200.65,595.448 1200.27,595.448 C1198.92,595.448 1198.44,594.584 1198.44,592.136 L1198.44,582.488 M1193.93,588.344 C1193.93,591.224 1193.79,591.896 1192.97,593.144 C1191.77,594.92 1189.61,596.12 1187.5,596.12 C1185.29,596.12 1183.71,594.536 1183.71,592.376 C1183.71,590.36 1184.71,588.92 1186.83,587.912 C1188.31,587.24 1190.19,586.76 1193.93,586.136 L1193.93,588.344 "/>
<path class="Lyrics" d="M1011.95,582.248 L1011.95,569.192 C1011.95,566.744 1011.95,566.648 1012.28,566.216 C1012.62,565.736 1013.53,565.592 1016.27,565.544 L1017.18,565.544 L1017.18,563.288 L1001.39,563.288 L1001.39,565.544 L1002.25,565.544 C1004.99,565.592 1005.9,565.736 1006.28,566.216 C1006.57,566.648 1006.57,566.792 1006.57,569.192 L1006.57,592.04 C1006.57,594.44 1006.57,594.584 1006.28,595.016 C1005.9,595.496 1004.99,595.688 1002.25,595.688 L1001.39,595.688 L1001.39,597.944 L1017.18,597.944 L1017.18,595.688 L1016.27,595.688 C1013.53,595.64 1012.67,595.496 1012.28,595.016 C1011.95,594.584 1011.95,594.488 1011.95,592.04 L1011.95,585.944 L1017.52,580.328 L1025.87,592.568 C1026.64,593.72 1026.83,594.104 1026.83,594.584 C1026.83,595.4 1025.92,595.688 1023.56,595.688 L1022.08,595.688 L1022.08,597.944 L1038.49,597.944 L1038.49,595.688 L1037.58,595.688 C1034.84,595.64 1034.32,595.4 1032.88,593.288 L1021.26,576.536 L1028.41,569.384 C1030.72,566.936 1033.64,565.544 1036.52,565.544 L1036.52,563.288 L1021.74,563.288 L1021.74,565.544 L1022.94,565.544 C1025.15,565.544 1026.06,565.976 1026.06,566.984 C1026.06,567.656 1025.1,569 1023.71,570.44 L1011.95,582.248 M1048.72,562.568 L1039.84,563.096 L1039.84,565.16 L1042.14,565.16 C1043.97,565.208 1044.21,565.496 1044.21,567.56 L1044.21,594.344 C1044.16,595.016 1044.11,595.304 1043.92,595.544 C1043.58,595.976 1042.67,596.168 1040.61,596.216 L1040.42,596.216 L1040.42,597.944 L1052.56,597.944 L1052.56,596.216 L1052.37,596.216 C1049.15,596.12 1048.72,595.88 1048.72,594.152 L1048.72,587.048 C1048.72,584.696 1049.06,582.536 1049.58,581.432 C1050.64,579.272 1052.75,577.784 1054.82,577.784 C1056.06,577.784 1057.5,578.504 1058.18,579.464 C1058.94,580.52 1059.28,581.96 1059.28,584.312 L1059.28,594.344 C1059.23,595.016 1059.18,595.304 1058.99,595.544 C1058.66,595.976 1057.7,596.168 1055.63,596.216 L1055.44,596.216 L1055.44,597.944 L1067.58,597.944 L1067.58,596.216 L1067.39,596.216 C1064.22,596.12 1063.79,595.88 1063.79,594.152 L1063.79,584.504 C1063.79,581.048 1063.65,580.184 1062.78,578.552 C1061.58,576.2 1059.18,574.856 1056.3,574.856 C1053.18,574.856 1050.88,576.248 1048.72,579.464 L1048.72,562.568 M1090.13,582.488 C1090.13,579.464 1089.6,577.928 1088.21,576.776 C1086.62,575.48 1084.27,574.856 1081.2,574.856 C1075.78,574.856 1071.84,577.4 1071.84,580.904 C1071.84,582.68 1072.94,583.832 1074.62,583.832 C1076.16,583.832 1077.22,582.824 1077.22,581.384 C1077.22,580.76 1076.98,580.088 1076.5,579.416 C1076.21,579.08 1076.16,578.984 1076.16,578.744 C1076.16,577.784 1078.08,576.92 1080.38,576.92 C1081.92,576.92 1083.6,577.4 1084.37,578.12 C1085.28,578.888 1085.62,580.04 1085.62,582.2 L1085.62,584.072 C1080.62,584.936 1079.04,585.32 1076.69,586.232 C1072.51,587.768 1070.54,589.976 1070.54,593.048 C1070.54,596.504 1073.23,598.664 1077.5,598.664 C1080.82,598.664 1083.79,597.32 1085.86,594.872 C1086.62,597.32 1087.82,598.28 1090.08,598.28 C1092.24,598.28 1094.5,596.888 1094.5,595.496 C1094.5,595.16 1094.3,594.92 1094.02,594.92 C1093.82,594.92 1093.63,594.968 1093.3,595.112 C1092.62,595.4 1092.34,595.448 1091.95,595.448 C1090.61,595.448 1090.13,594.584 1090.13,592.136 L1090.13,582.488 M1085.62,588.344 C1085.62,591.224 1085.47,591.896 1084.66,593.144 C1083.46,594.92 1081.3,596.12 1079.18,596.12 C1076.98,596.12 1075.39,594.536 1075.39,592.376 C1075.39,590.36 1076.4,588.92 1078.51,587.912 C1080,587.24 1081.87,586.76 1085.62,586.136 L1085.62,588.344 "/>
<path class="Lyrics" d="M790.902,574.856 C784.998,574.856 780.438,580.088 780.438,586.808 C780.438,593.384 785.046,598.664 790.806,598.664 C796.566,598.664 801.174,593.384 801.174,586.76 C801.174,580.184 796.566,574.856 790.902,574.856 M790.902,576.92 C794.262,576.92 796.134,580.424 796.134,586.76 C796.134,593.144 794.262,596.6 790.806,596.6 C787.35,596.6 785.478,593.144 785.478,586.808 C785.478,580.28 787.302,576.92 790.902,576.92"/>
<path class="Lyrics" d="M1464.34,581.288 L1464.34,592.04 C1464.34,594.488 1464.34,594.584 1464.05,595.016 C1463.66,595.496 1462.75,595.688 1460.02,595.688 L1459.15,595.688 L1459.15,597.944 L1474.9,597.944 L1474.9,595.688 L1474.03,595.688 C1471.3,595.688 1470.38,595.496 1470,595.016 C1469.71,594.584 1469.71,594.536 1469.71,592.04 L1469.71,569.192 C1469.71,566.696 1469.71,566.648 1470,566.216 C1470.43,565.688 1471.3,565.544 1474.03,565.544 L1474.9,565.544 L1474.9,563.288 L1459.34,563.288 L1459.34,565.544 L1460.02,565.544 C1462.75,565.544 1463.62,565.688 1464.05,566.216 C1464.34,566.648 1464.34,566.744 1464.34,569.192 L1464.34,578.696 L1448.26,578.696 L1448.26,569.192 C1448.26,566.744 1448.26,566.648 1448.59,566.216 C1448.98,565.688 1449.84,565.544 1452.58,565.544 L1453.49,565.544 L1453.49,563.288 L1437.7,563.288 L1437.7,565.544 L1438.56,565.544 C1441.3,565.544 1442.16,565.688 1442.59,566.216 C1442.88,566.648 1442.88,566.744 1442.88,569.192 L1442.88,592.04 C1442.88,594.44 1442.88,594.584 1442.59,595.016 C1442.21,595.496 1441.3,595.688 1438.56,595.688 L1437.7,595.688 L1437.7,597.944 L1453.49,597.944 L1453.49,595.688 L1452.58,595.688 C1449.84,595.64 1448.98,595.496 1448.59,595.016 C1448.26,594.584 1448.26,594.488 1448.26,592.04 L1448.26,581.288 L1464.34,581.288 M1488.37,574.856 C1482.46,574.856 1477.9,580.088 1477.9,586.808 C1477.9,593.384 1482.51,598.664 1488.27,598.664 C1494.03,598.664 1498.64,593.384 1498.64,586.76 C1498.64,580.184 1494.03,574.856 1488.37,574.856 M1488.37,576.92 C1491.73,576.92 1493.6,580.424 1493.6,586.76 C1493.6,593.144 1491.73,596.6 1488.27,596.6 C1484.82,596.6 1482.94,593.144 1482.94,586.808 C1482.94,580.28 1484.77,576.92 1488.37,576.92"/>
<path class="Lyrics" d="M657.372,586.328 L657.372,562.568 L648.492,563.096 L648.492,565.16 L650.796,565.16 C652.62,565.208 652.86,565.496 652.86,567.56 L652.86,594.344 C652.812,595.016 652.764,595.304 652.572,595.544 C652.236,595.976 651.324,596.168 649.26,596.216 L649.068,596.216 L649.068,597.944 L661.212,597.944 L661.212,596.216 L661.02,596.216 C657.804,596.12 657.372,595.88 657.372,594.152 L657.372,589.304 L660.3,586.52 L666.012,594.536 C666.252,594.92 666.348,595.16 666.348,595.352 C666.348,596.024 665.82,596.216 664.236,596.216 L663.324,596.216 L663.324,597.944 L675.996,597.944 L675.996,596.216 C673.308,595.976 672.348,595.4 670.38,592.904 L663.564,583.592 L665.724,581.48 C668.556,578.744 670.572,577.688 673.836,577.304 L673.836,575.576 L661.212,575.576 L661.212,577.304 L662.7,577.304 C664.236,577.304 664.956,577.592 664.956,578.216 C664.956,578.744 664.62,579.32 663.852,580.088 L657.372,586.328 "/>
<path class="Lyrics" d="M2289.09,582.248 L2289.09,569.192 C2289.09,566.744 2289.09,566.648 2289.42,566.216 C2289.76,565.736 2290.67,565.592 2293.41,565.544 L2294.32,565.544 L2294.32,563.288 L2278.53,563.288 L2278.53,565.544 L2279.39,565.544 C2282.13,565.592 2283.04,565.736 2283.42,566.216 C2283.71,566.648 2283.71,566.792 2283.71,569.192 L2283.71,592.04 C2283.71,594.44 2283.71,594.584 2283.42,595.016 C2283.04,595.496 2282.13,595.688 2279.39,595.688 L2278.53,595.688 L2278.53,597.944 L2294.32,597.944 L2294.32,595.688 L2293.41,595.688 C2290.67,595.64 2289.81,595.496 2289.42,595.016 C2289.09,594.584 2289.09,594.488 2289.09,592.04 L2289.09,585.944 L2294.65,580.328 L2303.01,592.568 C2303.77,593.72 2303.97,594.104 2303.97,594.584 C2303.97,595.4 2303.05,595.688 2300.7,595.688 L2299.21,595.688 L2299.21,597.944 L2315.63,597.944 L2315.63,595.688 L2314.72,595.688 C2311.98,595.64 2311.45,595.4 2310.01,593.288 L2298.4,576.536 L2305.55,569.384 C2307.85,566.936 2310.78,565.544 2313.66,565.544 L2313.66,563.288 L2298.88,563.288 L2298.88,565.544 L2300.08,565.544 C2302.29,565.544 2303.2,565.976 2303.2,566.984 C2303.2,567.656 2302.24,569 2300.85,570.44 L2289.09,582.248 M2325.56,591.848 L2320.28,579.512 C2320.09,579.032 2320,578.792 2320,578.552 C2320,577.64 2320.57,577.304 2322.2,577.304 L2323.21,577.304 L2323.21,575.576 L2311.79,575.576 L2311.79,577.304 L2312.32,577.304 C2313.95,577.352 2314.57,577.832 2315.58,579.896 L2323.4,597.608 L2322.59,599.288 C2320.86,602.936 2318.6,605.48 2317.07,605.48 C2316.64,605.48 2316.3,605.288 2316.3,605 C2316.3,604.904 2316.35,604.76 2316.4,604.568 C2316.54,604.136 2316.64,603.704 2316.64,603.32 C2316.64,602.072 2315.63,601.16 2314.19,601.16 C2312.51,601.16 2311.31,602.408 2311.31,604.136 C2311.31,606.296 2313.13,607.832 2315.68,607.832 C2318.22,607.832 2320.38,606.584 2322.3,603.992 C2323.79,602.024 2324.75,600.008 2326.86,594.776 L2332.33,581.192 C2333.44,578.408 2334.49,577.352 2336.36,577.304 L2336.65,577.304 L2336.65,575.576 L2327.05,575.576 L2327.05,577.304 L2327.82,577.304 C2329.64,577.304 2330.41,577.832 2330.41,579.08 C2330.41,579.608 2330.27,580.184 2329.93,581 L2325.56,591.848 M2357.52,582.488 C2357.52,579.464 2356.99,577.928 2355.6,576.776 C2354.01,575.48 2351.66,574.856 2348.59,574.856 C2343.16,574.856 2339.23,577.4 2339.23,580.904 C2339.23,582.68 2340.33,583.832 2342.01,583.832 C2343.55,583.832 2344.6,582.824 2344.6,581.384 C2344.6,580.76 2344.36,580.088 2343.88,579.416 C2343.6,579.08 2343.55,578.984 2343.55,578.744 C2343.55,577.784 2345.47,576.92 2347.77,576.92 C2349.31,576.92 2350.99,577.4 2351.76,578.12 C2352.67,578.888 2353,580.04 2353,582.2 L2353,584.072 C2348.01,584.936 2346.43,585.32 2344.08,586.232 C2339.9,587.768 2337.93,589.976 2337.93,593.048 C2337.93,596.504 2340.62,598.664 2344.89,598.664 C2348.2,598.664 2351.18,597.32 2353.24,594.872 C2354.01,597.32 2355.21,598.28 2357.47,598.28 C2359.63,598.28 2361.88,596.888 2361.88,595.496 C2361.88,595.16 2361.69,594.92 2361.4,594.92 C2361.21,594.92 2361.02,594.968 2360.68,595.112 C2360.01,595.4 2359.72,595.448 2359.34,595.448 C2358,595.448 2357.52,594.584 2357.52,592.136 L2357.52,582.488 M2353,588.344 C2353,591.224 2352.86,591.896 2352.04,593.144 C2350.84,594.92 2348.68,596.12 2346.57,596.12 C2344.36,596.12 2342.78,594.536 2342.78,592.376 C2342.78,590.36 2343.79,588.92 2345.9,587.912 C2347.39,587.24 2349.26,586.76 2353,586.136 L2353,588.344 M2372.92,588.776 C2372.88,584.072 2373.4,582.776 2376.48,580.136 C2381.18,576.008 2382.24,574.328 2382.24,570.968 C2382.24,565.976 2378.54,562.616 2373.07,562.616 C2367.6,562.616 2363.71,565.592 2363.71,569.72 C2363.71,571.832 2365.05,573.416 2366.88,573.416 C2368.36,573.416 2369.56,572.264 2369.56,570.776 C2369.56,569.816 2369.08,569 2368.17,568.232 C2367.45,567.656 2367.4,567.56 2367.4,567.176 C2367.4,565.928 2369.47,564.776 2371.82,564.776 C2375.23,564.776 2377.2,566.936 2377.2,570.68 C2377.2,572.648 2376.67,574.472 2375.66,575.816 C2372.11,580.712 2372.11,580.712 2371.48,582.392 C2371,583.736 2370.81,584.936 2370.81,587.24 L2370.81,588.776 L2372.92,588.776 M2371.77,592.664 C2370.09,592.664 2368.75,594.008 2368.75,595.64 C2368.75,597.32 2370.09,598.664 2371.72,598.664 C2373.4,598.664 2374.75,597.32 2374.75,595.64 C2374.75,594.008 2373.4,592.664 2371.77,592.664"/>
<path class="Lyrics" d="M1880.59,591.848 L1875.31,579.512 C1875.11,579.032 1875.02,578.792 1875.02,578.552 C1875.02,577.64 1875.59,577.304 1877.23,577.304 L1878.23,577.304 L1878.23,575.576 L1866.81,575.576 L1866.81,577.304 L1867.34,577.304 C1868.97,577.352 1869.59,577.832 1870.6,579.896 L1878.43,597.608 L1877.61,599.288 C1875.88,602.936 1873.63,605.48 1872.09,605.48 C1871.66,605.48 1871.32,605.288 1871.32,605 C1871.32,604.904 1871.37,604.76 1871.42,604.568 C1871.56,604.136 1871.66,603.704 1871.66,603.32 C1871.66,602.072 1870.65,601.16 1869.21,601.16 C1867.53,601.16 1866.33,602.408 1866.33,604.136 C1866.33,606.296 1868.15,607.832 1870.7,607.832 C1873.24,607.832 1875.4,606.584 1877.32,603.992 C1878.81,602.024 1879.77,600.008 1881.88,594.776 L1887.35,581.192 C1888.46,578.408 1889.51,577.352 1891.39,577.304 L1891.67,577.304 L1891.67,575.576 L1882.07,575.576 L1882.07,577.304 L1882.84,577.304 C1884.67,577.304 1885.43,577.832 1885.43,579.08 C1885.43,579.608 1885.29,580.184 1884.95,581 L1880.59,591.848 M1899.58,563.624 C1898.05,563.624 1896.8,564.872 1896.8,566.408 C1896.8,567.944 1898.05,569.192 1899.54,569.192 C1901.12,569.192 1902.37,567.944 1902.37,566.408 C1902.37,564.872 1901.12,563.624 1899.58,563.624 M1901.84,575.576 L1892.82,576.104 L1892.82,578.168 L1895.26,578.168 C1897.09,578.216 1897.33,578.504 1897.33,580.568 L1897.33,594.296 C1897.28,595.016 1897.23,595.304 1897.04,595.544 C1896.7,595.976 1895.79,596.168 1893.73,596.216 L1893.39,596.216 L1893.39,597.944 L1905.82,597.944 L1905.82,596.216 L1905.49,596.216 C1902.27,596.12 1901.84,595.88 1901.84,594.152 L1901.84,575.576 "/>
<path class="Lyrics" d="M1755.9,562.952 L1754.08,562.952 L1752.2,565.832 C1749.08,563.384 1746.97,562.568 1743.47,562.568 C1739.68,562.568 1736.7,563.624 1733.68,566.072 C1728.92,569.912 1726.72,574.76 1726.72,581.24 C1726.72,586.136 1728.11,590.216 1730.94,593.336 C1733.92,596.696 1738.33,598.664 1742.94,598.664 C1746.97,598.664 1749.8,597.416 1752.92,594.296 L1754.7,598.616 L1756.72,598.616 L1756.72,588.056 C1756.72,585.608 1756.72,585.512 1757,585.08 C1757.44,584.552 1758.3,584.408 1761.04,584.408 L1761.76,584.408 L1761.76,582.152 L1746.49,582.152 L1746.49,584.408 L1747.4,584.408 C1751.44,584.408 1751.77,584.648 1751.77,587.336 C1751.77,589.4 1751.44,591.272 1750.81,592.424 C1749.61,594.776 1746.54,596.408 1743.42,596.408 C1740.3,596.408 1737.23,594.824 1735.6,592.424 C1733.82,589.736 1733.05,586.376 1733.05,581.24 C1733.05,570.536 1736.6,564.824 1743.28,564.824 C1748.75,564.824 1752.54,568.76 1754.51,576.44 L1756.57,576.44 L1755.9,562.952 M1783.69,582.488 C1783.69,579.464 1783.17,577.928 1781.77,576.776 C1780.19,575.48 1777.84,574.856 1774.77,574.856 C1769.34,574.856 1765.41,577.4 1765.41,580.904 C1765.41,582.68 1766.51,583.832 1768.19,583.832 C1769.73,583.832 1770.78,582.824 1770.78,581.384 C1770.78,580.76 1770.54,580.088 1770.06,579.416 C1769.77,579.08 1769.73,578.984 1769.73,578.744 C1769.73,577.784 1771.65,576.92 1773.95,576.92 C1775.49,576.92 1777.17,577.4 1777.93,578.12 C1778.85,578.888 1779.18,580.04 1779.18,582.2 L1779.18,584.072 C1774.19,584.936 1772.61,585.32 1770.25,586.232 C1766.08,587.768 1764.11,589.976 1764.11,593.048 C1764.11,596.504 1766.8,598.664 1771.07,598.664 C1774.38,598.664 1777.36,597.32 1779.42,594.872 C1780.19,597.32 1781.39,598.28 1783.65,598.28 C1785.81,598.28 1788.06,596.888 1788.06,595.496 C1788.06,595.16 1787.87,594.92 1787.58,594.92 C1787.39,594.92 1787.2,594.968 1786.86,595.112 C1786.19,595.4 1785.9,595.448 1785.52,595.448 C1784.17,595.448 1783.69,594.584 1783.69,592.136 L1783.69,582.488 M1779.18,588.344 C1779.18,591.224 1779.04,591.896 1778.22,593.144 C1777.02,594.92 1774.86,596.12 1772.75,596.12 C1770.54,596.12 1768.96,594.536 1768.96,592.376 C1768.96,590.36 1769.97,588.92 1772.08,587.912 C1773.57,587.24 1775.44,586.76 1779.18,586.136 L1779.18,588.344 "/>
<path class="Lyrics" d="M453.237,563 L451.461,563 L449.541,565.88 C447.237,563.72 444.213,562.568 440.805,562.568 C434.469,562.568 430.293,566.552 430.293,572.6 C430.293,577.832 432.885,580.424 439.941,582.248 L444.501,583.4 C448.053,584.312 448.389,584.408 449.397,585.176 C450.837,586.28 451.605,587.864 451.605,589.736 C451.605,591.656 450.885,593.24 449.445,594.584 C447.861,595.928 446.277,596.456 443.637,596.456 C436.389,596.456 432.789,591.128 431.541,584.648 L429.477,584.648 L429.669,598.328 L431.541,598.328 L433.701,595.064 C436.917,597.704 439.557,598.664 443.781,598.664 C450.837,598.664 455.349,594.536 455.349,588.104 C455.349,585.08 454.389,582.584 452.469,580.76 C451.173,579.512 449.301,578.696 445.461,577.736 L440.325,576.44 C436.053,575.336 434.037,573.464 434.037,570.536 C434.037,567.176 436.773,564.872 440.853,564.872 C447.045,564.872 450.453,570.008 451.749,575.48 L453.813,575.48 L453.237,563 M478.866,582.488 C478.866,579.464 478.338,577.928 476.946,576.776 C475.362,575.48 473.01,574.856 469.938,574.856 C464.514,574.856 460.578,577.4 460.578,580.904 C460.578,582.68 461.682,583.832 463.362,583.832 C464.898,583.832 465.954,582.824 465.954,581.384 C465.954,580.76 465.714,580.088 465.234,579.416 C464.946,579.08 464.898,578.984 464.898,578.744 C464.898,577.784 466.818,576.92 469.122,576.92 C470.658,576.92 472.338,577.4 473.106,578.12 C474.018,578.888 474.354,580.04 474.354,582.2 L474.354,584.072 C469.362,584.936 467.778,585.32 465.426,586.232 C461.25,587.768 459.282,589.976 459.282,593.048 C459.282,596.504 461.97,598.664 466.242,598.664 C469.554,598.664 472.53,597.32 474.594,594.872 C475.362,597.32 476.562,598.28 478.818,598.28 C480.978,598.28 483.234,596.888 483.234,595.496 C483.234,595.16 483.042,594.92 482.754,594.92 C482.562,594.92 482.37,594.968 482.034,595.112 C481.362,595.4 481.074,595.448 480.69,595.448 C479.346,595.448 478.866,594.584 478.866,592.136 L478.866,582.488 M474.354,588.344 C474.354,591.224 474.21,591.896 473.394,593.144 C472.194,594.92 470.034,596.12 467.922,596.12 C465.714,596.12 464.13,594.536 464.13,592.376 C464.13,590.36 465.138,588.92 467.25,587.912 C468.738,587.24 470.61,586.76 474.354,586.136 L474.354,588.344 M492.497,562.568 L484.241,563.096 L484.241,565.16 L485.921,565.16 C487.745,565.208 487.985,565.496 487.985,567.56 L487.985,586.232 C487.985,592.904 487.697,596.552 487.121,598.616 L488.945,598.616 L491.297,594.872 C493.265,597.464 495.521,598.664 498.497,598.664 C504.449,598.664 508.817,593.576 508.817,586.616 C508.817,579.704 504.785,574.856 499.025,574.856 C496.097,574.856 494.321,575.864 492.497,578.6 L492.497,562.568 M498.161,577.304 C501.761,577.304 503.777,580.808 503.777,587.096 C503.777,593.192 501.809,596.6 498.305,596.6 C494.513,596.6 492.257,593.096 492.257,587.192 C492.257,580.76 494.321,577.304 498.161,577.304"/>
<path class="Fingering" d="M1662.3,780.641 C1660.67,782.609 1656.25,784.097 1651.84,784.193 L1651.84,786.257 L1656.06,786.257 C1658.84,786.305 1659.13,786.593 1659.04,789.281 L1659.04,808.529 C1659.04,810.977 1659.04,811.073 1658.75,811.505 C1658.36,811.985 1657.45,812.177 1654.76,812.177 L1651.64,812.177 L1651.64,814.433 L1670.65,814.433 L1670.65,812.177 L1668.01,812.177 C1665.32,812.177 1664.41,811.985 1664.03,811.505 C1663.69,811.073 1663.69,811.025 1663.69,808.529 L1663.69,788.705 C1663.69,786.017 1663.79,783.761 1664.03,780.641 L1662.3,780.641 "/>
<path class="Fingering" d="M1672.37,861.665 L1670.25,861.665 L1669.77,864.113 C1669.15,867.233 1668.77,867.521 1665.79,867.521 L1655.04,867.521 C1658.35,864.065 1659.45,863.057 1662.53,860.657 C1666.89,857.297 1668.77,855.617 1669.87,854.177 C1671.41,852.065 1672.17,849.953 1672.17,847.601 C1672.17,842.129 1667.66,838.241 1661.37,838.241 C1655.28,838.241 1650.62,842.129 1650.62,847.265 C1650.62,850.289 1652.16,852.353 1654.41,852.353 C1656.19,852.353 1657.39,851.153 1657.39,849.425 C1657.39,848.225 1656.72,847.121 1655.71,846.689 C1653.93,845.969 1653.84,845.873 1653.84,845.249 C1653.84,844.529 1654.32,843.425 1654.99,842.609 C1656.19,841.121 1658.16,840.305 1660.41,840.305 C1664.4,840.305 1666.75,842.753 1666.75,846.785 C1666.75,850.337 1665.07,853.553 1661.09,857.777 C1657.53,861.521 1655.33,863.873 1654.51,864.785 C1652.78,866.801 1651.92,867.905 1649.81,870.689 L1649.81,872.033 L1671.45,872.033 L1672.37,861.665 "/>
<path class="Fingering" d="M2320.85,795.221 C2319.22,797.189 2314.81,798.677 2310.39,798.773 L2310.39,800.837 L2314.61,800.837 C2317.4,800.885 2317.69,801.173 2317.59,803.861 L2317.59,823.109 C2317.59,825.557 2317.59,825.653 2317.3,826.085 C2316.92,826.565 2316.01,826.757 2313.32,826.757 L2310.2,826.757 L2310.2,829.013 L2329.21,829.013 L2329.21,826.757 L2326.57,826.757 C2323.88,826.757 2322.97,826.565 2322.58,826.085 C2322.25,825.653 2322.25,825.605 2322.25,823.109 L2322.25,803.285 C2322.25,800.597 2322.34,798.341 2322.58,795.221 L2320.85,795.221 "/>
<path class="Fingering" d="M2322.96,868.949 C2327.33,867.365 2329.34,864.917 2329.34,861.077 C2329.34,856.037 2325.5,852.821 2319.55,852.821 C2313.94,852.821 2309.66,856.133 2309.66,860.501 C2309.66,862.469 2310.96,863.861 2312.83,863.861 C2314.51,863.861 2315.66,862.709 2315.66,860.981 C2315.66,859.925 2315.28,859.301 2314.18,858.533 C2313.7,858.197 2313.55,858.005 2313.55,857.669 C2313.55,856.325 2316.34,854.885 2319.07,854.885 C2322.53,854.885 2324.35,857.045 2324.35,861.125 C2324.35,865.589 2322.53,867.941 2319.12,867.941 C2318.69,867.941 2317.87,867.893 2317.15,867.845 C2316.77,867.797 2316.38,867.797 2316.1,867.797 C2315.09,867.797 2314.56,868.229 2314.56,869.093 C2314.56,869.909 2315.04,870.293 2316.1,870.293 C2316.38,870.293 2316.77,870.293 2317.2,870.245 C2318.16,870.197 2318.93,870.197 2319.46,870.197 C2323.01,870.197 2324.93,872.741 2324.93,877.493 C2324.93,882.485 2322.53,885.269 2318.21,885.269 C2315.18,885.269 2311.92,883.637 2311.92,882.149 C2311.92,881.717 2312.02,881.621 2312.93,881.093 C2314.27,880.277 2314.8,879.461 2314.8,878.261 C2314.8,876.533 2313.5,875.237 2311.78,875.237 C2309.71,875.237 2308.37,876.917 2308.37,879.461 C2308.37,884.117 2312.64,887.333 2318.78,887.333 C2325.74,887.333 2330.26,883.493 2330.26,877.589 C2330.26,873.077 2327.95,870.341 2322.96,868.949"/>
<path class="Fingering" d="M2314.13,915.845 C2316.72,916.469 2318.02,916.661 2319.94,916.661 C2324.02,916.661 2326.99,915.269 2328.58,912.581 C2329.11,911.717 2329.3,911.237 2329.3,910.853 C2329.3,910.565 2329.2,910.421 2328.91,910.421 C2328.77,910.421 2328.58,910.469 2328.29,910.613 C2325.94,911.621 2324.69,911.861 2321.91,911.861 C2318.83,911.861 2316.91,911.573 2312.02,910.421 C2311.83,914.453 2311.39,919.589 2310.72,925.541 C2309.71,926.597 2309.38,927.221 2309.38,927.989 C2309.38,928.997 2310,929.621 2310.91,929.621 C2312.16,929.621 2312.88,928.613 2313.07,926.693 C2314.75,925.493 2316.34,924.965 2318.26,924.965 C2322.58,924.965 2325.12,928.229 2325.12,933.749 C2325.12,938.741 2323.54,942.869 2317.97,942.869 C2315.09,942.869 2312.11,941.381 2312.11,939.893 C2312.11,939.557 2312.4,939.173 2312.98,938.837 C2314.47,937.925 2314.9,937.301 2314.9,936.005 C2314.9,934.325 2313.6,933.029 2311.87,933.029 C2309.95,933.029 2308.42,934.805 2308.42,937.061 C2308.42,939.461 2309.81,941.861 2311.97,943.349 C2313.6,944.405 2315.52,944.933 2318.07,944.933 C2325.6,944.933 2330.35,940.517 2330.35,933.461 C2330.35,926.933 2326.03,922.565 2319.51,922.565 C2317.44,922.565 2315.95,922.901 2313.31,924.005 L2314.13,915.845 "/>
<path class="Fingering" d="M2080.18,780.641 C2078.55,782.609 2074.13,784.097 2069.72,784.193 L2069.72,786.257 L2073.94,786.257 C2076.73,786.305 2077.01,786.593 2076.92,789.281 L2076.92,808.529 C2076.92,810.977 2076.92,811.073 2076.63,811.505 C2076.25,811.985 2075.33,812.177 2072.65,812.177 L2069.53,812.177 L2069.53,814.433 L2088.53,814.433 L2088.53,812.177 L2085.89,812.177 C2083.21,812.177 2082.29,811.985 2081.91,811.505 C2081.57,811.073 2081.57,811.025 2081.57,808.529 L2081.57,788.705 C2081.57,786.017 2081.67,783.761 2081.91,780.641 L2080.18,780.641 "/>
<path class="Fingering" d="M2090.25,861.665 L2088.14,861.665 L2087.66,864.113 C2087.03,867.233 2086.65,867.521 2083.67,867.521 L2072.92,867.521 C2076.23,864.065 2077.34,863.057 2080.41,860.657 C2084.78,857.297 2086.65,855.617 2087.75,854.177 C2089.29,852.065 2090.06,849.953 2090.06,847.601 C2090.06,842.129 2085.54,838.241 2079.26,838.241 C2073.16,838.241 2068.5,842.129 2068.5,847.265 C2068.5,850.289 2070.04,852.353 2072.3,852.353 C2074.07,852.353 2075.27,851.153 2075.27,849.425 C2075.27,848.225 2074.6,847.121 2073.59,846.689 C2071.82,845.969 2071.72,845.873 2071.72,845.249 C2071.72,844.529 2072.2,843.425 2072.87,842.609 C2074.07,841.121 2076.04,840.305 2078.3,840.305 C2082.28,840.305 2084.63,842.753 2084.63,846.785 C2084.63,850.337 2082.95,853.553 2078.97,857.777 C2075.42,861.521 2073.21,863.873 2072.39,864.785 C2070.66,866.801 2069.8,867.905 2067.69,870.689 L2067.69,872.033 L2089.34,872.033 L2090.25,861.665 "/>
<path class="Fingering" d="M1890.27,768.334 L1873.95,791.038 L1873.95,793.726 L1887.44,793.726 L1887.44,796.222 C1887.44,798.67 1887.44,798.766 1887.15,799.198 C1886.77,799.726 1885.86,799.87 1883.12,799.87 L1882.59,799.87 L1882.59,802.126 L1896.61,802.126 L1896.61,799.87 L1896.42,799.87 C1893.68,799.87 1892.77,799.726 1892.38,799.198 C1892.1,798.766 1892.1,798.718 1892.1,796.222 L1892.1,793.726 L1897.9,793.726 L1897.9,791.038 L1892.1,791.038 L1892.1,777.934 C1892.1,771.934 1892.1,771.79 1892.34,768.334 L1890.27,768.334 M1887.44,791.038 L1876.88,791.038 L1887.44,776.494 L1887.44,791.038 "/>
<path class="Fingering" d="M1472.39,768.334 L1456.07,791.038 L1456.07,793.726 L1469.56,793.726 L1469.56,796.222 C1469.56,798.67 1469.56,798.766 1469.27,799.198 C1468.89,799.726 1467.97,799.87 1465.24,799.87 L1464.71,799.87 L1464.71,802.126 L1478.73,802.126 L1478.73,799.87 L1478.53,799.87 C1475.8,799.87 1474.89,799.726 1474.5,799.198 C1474.21,798.766 1474.21,798.718 1474.21,796.222 L1474.21,793.726 L1480.02,793.726 L1480.02,791.038 L1474.21,791.038 L1474.21,777.934 C1474.21,771.934 1474.21,771.79 1474.45,768.334 L1472.39,768.334 M1469.56,791.038 L1459,791.038 L1469.56,776.494 L1469.56,791.038 "/>
<path class="OttavaSegment" d="M424.111,354.003 C424.111,350.547 425.839,347.667 428.911,345.843 C429.679,346.323 429.775,346.323 430.447,346.611 C432.463,347.667 432.463,347.667 432.847,347.859 C436.207,349.875 437.647,351.699 437.647,354.291 C437.647,357.747 434.671,360.339 430.639,360.339 C426.703,360.339 424.111,357.843 424.111,354.003 M441.103,333.171 C441.103,336.243 439.951,338.163 437.167,340.275 C434.191,338.739 433.711,338.547 432.943,338.067 C430.255,336.435 429.391,335.187 429.391,332.883 C429.391,329.619 431.791,327.315 435.343,327.315 C438.895,327.315 441.103,329.523 441.103,333.171 M444.559,351.123 C444.559,347.379 442.735,344.019 439.279,341.811 C444.559,339.795 447.055,337.011 447.055,333.075 C447.055,327.987 442.639,324.627 436.303,324.627 C428.431,324.627 422.863,329.427 422.863,336.147 C422.863,339.411 424.015,341.619 426.895,344.115 C422.287,345.939 417.679,348.627 417.679,354.291 C417.679,359.475 422.479,362.931 429.583,362.931 C438.511,362.931 444.559,358.035 444.559,351.123"/>
<polyline class="OttavaSegment" fill="none" stroke="#000000" stroke-dasharray="15.9192,-6.3918" stroke-dashoffset="0" stroke-width="2.65" stroke-linejoin="miter" stroke-miterlimit="2" points="1924.73,350.081 1924.73,324.634" />
<polyline class="OttavaSegment" fill="none" stroke="#000000" stroke-dasharray="15.9192,15.6247" stroke-dashoffset="0" stroke-width="2.65" stroke-linejoin="miter" stroke-miterlimit="2" points="459.114,325.961 1926.05,325.961" />
<polyline class="PedalSegment" fill="none" stroke="#000000" stroke-width="2.65" stroke-linejoin="miter" stroke-miterlimit="2" points="429.256,992.034 457.952,992.034 469.529,963.09" />
<polyline class="PedalSegment" fill="none" stroke="#000000" stroke-width="2.65" stroke-linejoin="miter" stroke-miterlimit="2" points="469.529,963.09 481.107,992.034 1456.79,992.034 1468.37,963.09" />
<polyline class="PedalSegment" fill="none" stroke="#000000" stroke-width="2.65" stroke-linejoin="miter" stroke-miterlimit="2" points="1468.37,963.09 1479.94,992.034 2310.53,992.034 2322.11,963.09" />
<polyline class="PedalSegment" fill="none" stroke="#000000" stroke-width="2.65" stroke-linejoin="miter" stroke-miterlimit="2" points="2322.11,963.09 2333.69,992.034 2719.98,992.034 2719.98,963.09" />
<polyline class="LyricsLineSegment" fill="none" stroke="#000000" stroke-width="2.41" stroke-linejoin="bevel" points="1820.24,586.759 1834.71,586.759" />
<polyline class="LyricsLineSegment" fill="none" stroke="#000000" stroke-width="2.41" stroke-linejoin="bevel" points="571.802,586.759 586.274,586.759" />
<polyline class="LyricsLineSegment" fill="none" stroke="#000000" stroke-width="2.41" stroke-linejoin="bevel" points="721.131,586.759 735.603,586.759" />
<polyline class="LyricsLineSegment" fill="none" stroke="#000000" stroke-width="2.41" stroke-linejoin="bevel" points="1115.42,586.759 1129.9,586.759" />
<polyline class="LyricsLineSegment" fill="none" stroke="#000000" stroke-width="2.41" stroke-linejoin="bevel" points="1241.94,586.759 1256.42,586.759" />
<path class="NoteDot" transform="matrix(0.9648,0,0,0.9648,1496.1,441.738)" d="M0,0 C0,2.8 2.2,5 5,5 C7.8,5 10,2.8 10,0 C10,-2.8 7.8,-5 5,-5 C2.2,-5 0,-2.8 0,0"/>
<path class="Page" d="M2754.85,229.605 C2759.1,228.505 2762.9,226.605 2762.9,221.455 C2762.9,216.155 2758.2,212.605 2751.1,212.605 C2747.45,212.605 2744.5,213.555 2742.4,215.405 C2740.75,216.855 2739.75,218.955 2739.75,220.855 C2739.75,223.455 2741.7,225.405 2744.25,225.405 C2746.65,225.405 2748.3,223.805 2748.3,221.455 C2748.3,220.105 2747.75,219.055 2746.35,217.705 C2746.1,217.455 2746,217.305 2746,217.105 C2746,216.155 2747.85,215.205 2749.8,215.205 C2752.95,215.205 2754.8,217.505 2754.8,221.405 C2754.8,225.755 2753.35,228.405 2750.9,228.405 C2750.5,228.405 2750,228.355 2749.2,228.155 C2748.1,227.905 2747.75,227.855 2747.2,227.855 C2745.95,227.855 2745.35,228.405 2745.35,229.505 C2745.35,230.655 2746.1,231.405 2747.15,231.405 C2747.5,231.405 2747.8,231.355 2748.65,231.255 C2749.8,231.155 2750.1,231.105 2750.45,231.105 C2753.55,231.105 2755.1,233.505 2755.1,238.205 C2755.1,243.255 2753,246.105 2749.3,246.105 C2747.2,246.105 2745,245.055 2745,244.005 C2745,243.705 2745.15,243.405 2745.45,243.105 C2746.95,241.705 2747.3,241.055 2747.3,239.605 C2747.3,237.255 2745.45,235.455 2743,235.455 C2740.3,235.455 2738.5,237.405 2738.5,240.205 C2738.5,245.255 2743.4,248.705 2750.6,248.705 C2757.2,248.705 2763.8,245.955 2763.8,238.355 C2763.8,235.205 2762.4,232.455 2760.1,231.105 C2758.65,230.305 2757.5,229.955 2754.85,229.605"/>
<path class="Bracket" transform="matrix(3.4974,0,0,3.74847,182.407,756.285)" d="M0.9,-50 C2.7,-51.9 6.2,-55.8 6.2,-63 C6.2,-72.1 2.3,-81.3 2.3,-87 C2.3,-93.1 5.8,-98.8 6,-99 C6,-99.1 6,-99.1 6,-99.2 C6,-99.3 6,-99.4 5.9,-99.5 C5.8,-99.5 5.6,-99.5 5.5,-99.3 C5.4,-99.2 0,-93.8 0,-85.6 C0,-76.8 3.5,-70.6 3.5,-59.1 C3.5,-56.9 2.6,-53.4 0.1,-50.3 C0,-50.3 0,-50.1 0,-50 C-0.1,-49.9 0,-49.8 0.1,-49.7 C2.6,-46.6 3.5,-43.1 3.5,-40.9 C3.5,-29.4 0,-23.2 0,-14.4 C0,-6.3 5.4,-0.8 5.5,-0.7 C5.6,-0.5 5.8,-0.4 5.9,-0.5 C6,-0.6 6.1,-0.7 6,-0.8 C6,-0.8 6,-0.9 6,-1 C5.8,-1.2 2.3,-6.9 2.3,-13 C2.3,-18.7 6.2,-27.9 6.2,-37 C6.2,-44.3 2.7,-48.1 0.9,-50"/>
</svg>
